<svg width="274" height="100" viewBox="0 0 274 100" fill="none" xmlns="http://www.w3.org/2000/svg">
<rect width="274" height="100" rx="15" fill="#7389DB"/>
<path d="M146.458 26.3226H148.801V38.8401C148.801 40.5317 148.291 41.8551 147.271 42.8102C146.26 43.7653 144.908 44.2428 143.216 44.2428C141.46 44.2428 140.092 43.7936 139.113 42.8952C138.133 41.9967 137.643 40.7381 137.643 39.1193H139.975C139.975 40.1311 140.25 40.9202 140.8 41.4868C141.359 42.0534 142.164 42.3367 143.216 42.3367C144.179 42.3367 144.956 42.0332 145.547 41.4261C146.146 40.819 146.45 39.9692 146.458 38.8765V26.3226ZM151.824 37.3103C151.824 36.0233 152.075 34.8659 152.577 33.8379C153.087 32.81 153.791 32.0168 154.69 31.4583C155.596 30.8998 156.628 30.6206 157.785 30.6206C159.574 30.6206 161.019 31.2398 162.12 32.4781C163.229 33.7165 163.783 35.3637 163.783 37.4196V37.5774C163.783 38.8562 163.536 40.0056 163.043 41.0254C162.557 42.0372 161.857 42.8264 160.942 43.3929C160.036 43.9595 158.991 44.2428 157.81 44.2428C156.029 44.2428 154.584 43.6236 153.475 42.3852C152.375 41.1469 151.824 39.5078 151.824 37.4681V37.3103ZM154.082 37.5774C154.082 39.0343 154.418 40.2039 155.09 41.0861C155.77 41.9684 156.677 42.4095 157.81 42.4095C158.951 42.4095 159.858 41.9644 160.529 41.074C161.201 40.1756 161.537 38.921 161.537 37.3103C161.537 35.8695 161.193 34.704 160.505 33.8137C159.825 32.9152 158.919 32.466 157.785 32.466C156.677 32.466 155.782 32.9071 155.102 33.7894C154.422 34.6716 154.082 35.9343 154.082 37.5774ZM169.04 44H166.794V30.8634H169.04V44ZM166.612 27.3789C166.612 27.0147 166.721 26.7071 166.94 26.4562C167.166 26.2053 167.498 26.0798 167.935 26.0798C168.372 26.0798 168.704 26.2053 168.931 26.4562C169.158 26.7071 169.271 27.0147 169.271 27.3789C169.271 27.7431 169.158 28.0467 168.931 28.2895C168.704 28.5323 168.372 28.6537 167.935 28.6537C167.498 28.6537 167.166 28.5323 166.94 28.2895C166.721 28.0467 166.612 27.7431 166.612 27.3789ZM174.771 30.8634L174.844 32.5146C175.847 31.2519 177.159 30.6206 178.777 30.6206C181.554 30.6206 182.954 32.1868 182.978 35.3192V44H180.732V35.307C180.724 34.36 180.505 33.6599 180.076 33.2066C179.656 32.7533 178.996 32.5267 178.097 32.5267C177.369 32.5267 176.73 32.721 176.179 33.1095C175.629 33.498 175.2 34.0079 174.892 34.6393V44H172.646V30.8634H174.771ZM200.643 42.7009C199.769 43.7288 198.486 44.2428 196.795 44.2428C195.394 44.2428 194.326 43.8381 193.589 43.0287C192.861 42.2112 192.493 41.0052 192.485 39.4107V30.8634H194.731V39.35C194.731 41.3411 195.54 42.3367 197.159 42.3367C198.875 42.3367 200.016 41.6972 200.583 40.4184V30.8634H202.829V44H200.692L200.643 42.7009ZM213.901 40.5155C213.901 39.9085 213.671 39.439 213.209 39.1072C212.756 38.7672 211.959 38.4758 210.818 38.233C209.684 37.9902 208.782 37.6988 208.11 37.3588C207.446 37.0189 206.953 36.6142 206.629 36.1447C206.313 35.6753 206.155 35.1168 206.155 34.4693C206.155 33.3928 206.609 32.4822 207.515 31.7375C208.43 30.9929 209.595 30.6206 211.012 30.6206C212.501 30.6206 213.707 31.005 214.63 31.774C215.561 32.5429 216.026 33.5263 216.026 34.7242H213.768C213.768 34.1091 213.505 33.5789 212.979 33.1338C212.461 32.6886 211.805 32.466 211.012 32.466C210.194 32.466 209.555 32.6441 209.094 33.0002C208.632 33.3563 208.401 33.8218 208.401 34.3964C208.401 34.9387 208.616 35.3475 209.045 35.6227C209.474 35.8979 210.247 36.1609 211.364 36.4118C212.489 36.6628 213.4 36.9622 214.096 37.3103C214.792 37.6583 215.306 38.0792 215.638 38.573C215.978 39.0586 216.147 39.6535 216.147 40.3577C216.147 41.5313 215.678 42.4743 214.739 43.1865C213.8 43.8907 212.582 44.2428 211.085 44.2428C210.032 44.2428 209.102 44.0567 208.292 43.6843C207.483 43.312 206.847 42.794 206.386 42.1303C205.933 41.4585 205.706 40.7341 205.706 39.957H207.952C207.993 40.7098 208.292 41.3087 208.851 41.7539C209.417 42.191 210.162 42.4095 211.085 42.4095C211.935 42.4095 212.614 42.2395 213.124 41.8996C213.642 41.5516 213.901 41.0902 213.901 40.5155ZM224.646 37.3103C224.646 36.0233 224.897 34.8659 225.399 33.8379C225.909 32.81 226.613 32.0168 227.512 31.4583C228.418 30.8998 229.45 30.6206 230.607 30.6206C232.396 30.6206 233.841 31.2398 234.942 32.4781C236.051 33.7165 236.605 35.3637 236.605 37.4196V37.5774C236.605 38.8562 236.358 40.0056 235.865 41.0254C235.379 42.0372 234.679 42.8264 233.764 43.3929C232.858 43.9595 231.813 44.2428 230.632 44.2428C228.851 44.2428 227.406 43.6236 226.297 42.3852C225.197 41.1469 224.646 39.5078 224.646 37.4681V37.3103ZM226.904 37.5774C226.904 39.0343 227.24 40.2039 227.912 41.0861C228.592 41.9684 229.499 42.4095 230.632 42.4095C231.773 42.4095 232.68 41.9644 233.351 41.074C234.023 40.1756 234.359 38.921 234.359 37.3103C234.359 35.8695 234.015 34.704 233.327 33.8137C232.647 32.9152 231.741 32.466 230.607 32.466C229.499 32.466 228.604 32.9071 227.924 33.7894C227.244 34.6716 226.904 35.9343 226.904 37.5774ZM241.547 30.8634L241.619 32.5146C242.623 31.2519 243.934 30.6206 245.553 30.6206C248.329 30.6206 249.73 32.1868 249.754 35.3192V44H247.508V35.307C247.5 34.36 247.281 33.6599 246.852 33.2066C246.431 32.7533 245.772 32.5267 244.873 32.5267C244.145 32.5267 243.505 32.721 242.955 33.1095C242.405 33.498 241.976 34.0079 241.668 34.6393V44H239.422V30.8634H241.547ZM138.578 73V55.3226H144.018C145.572 55.3226 146.96 55.6747 148.182 56.3789C149.412 57.075 150.371 58.0706 151.059 59.3656C151.747 60.6526 152.091 62.1176 152.091 63.7607V64.5741C152.091 66.2172 151.751 67.6782 151.071 68.957C150.4 70.2359 149.449 71.2274 148.218 71.9316C146.988 72.6358 145.6 72.9919 144.054 73H138.578ZM142.221 58.2729V70.074H143.981C145.406 70.074 146.494 69.6086 147.247 68.6778C148 67.747 148.384 66.4155 148.4 64.6834V63.7485C148.4 61.9516 148.028 60.5918 147.283 59.6691C146.539 58.7383 145.45 58.2729 144.018 58.2729H142.221ZM158.223 73H154.702V59.8634H158.223V73ZM154.495 56.4639C154.495 55.9378 154.669 55.5048 155.017 55.1648C155.373 54.8249 155.855 54.6549 156.462 54.6549C157.061 54.6549 157.539 54.8249 157.895 55.1648C158.251 55.5048 158.429 55.9378 158.429 56.4639C158.429 56.9981 158.247 57.4352 157.883 57.7751C157.526 58.1151 157.053 58.2851 156.462 58.2851C155.871 58.2851 155.394 58.1151 155.029 57.7751C154.673 57.4352 154.495 56.9981 154.495 56.4639ZM168.239 69.3698C168.239 68.9408 168.024 68.6049 167.595 68.3621C167.175 68.1112 166.495 67.8886 165.556 67.6944C162.431 67.0387 160.869 65.7113 160.869 63.7121C160.869 62.5466 161.351 61.5753 162.314 60.7982C163.285 60.0131 164.552 59.6206 166.114 59.6206C167.782 59.6206 169.113 60.0131 170.109 60.7982C171.112 61.5834 171.614 62.6032 171.614 63.8578H168.105C168.105 63.356 167.943 62.9432 167.62 62.6194C167.296 62.2875 166.79 62.1216 166.102 62.1216C165.511 62.1216 165.054 62.2552 164.73 62.5223C164.406 62.7894 164.245 63.1293 164.245 63.5421C164.245 63.9306 164.427 64.2463 164.791 64.4891C165.163 64.7239 165.786 64.9303 166.661 65.1083C167.535 65.2783 168.271 65.4726 168.87 65.6911C170.724 66.371 171.651 67.5487 171.651 69.2241C171.651 70.4221 171.137 71.3933 170.109 72.138C169.081 72.8745 167.753 73.2428 166.126 73.2428C165.026 73.2428 164.046 73.0486 163.188 72.6601C162.338 72.2634 161.671 71.7252 161.185 71.0453C160.699 70.3573 160.457 69.6167 160.457 68.8235H163.783C163.816 69.4467 164.046 69.9243 164.475 70.2561C164.904 70.588 165.479 70.7539 166.199 70.7539C166.871 70.7539 167.377 70.6284 167.717 70.3775C168.065 70.1185 168.239 69.7826 168.239 69.3698ZM179.384 70.414C180.032 70.414 180.558 70.2359 180.963 69.8798C181.367 69.5236 181.578 69.0501 181.594 68.4592H184.884C184.876 69.3496 184.633 70.1671 184.156 70.9117C183.678 71.6483 183.023 72.223 182.189 72.6358C181.363 73.0405 180.449 73.2428 179.445 73.2428C177.567 73.2428 176.086 72.6479 175.001 71.4581C173.917 70.2602 173.375 68.609 173.375 66.5045V66.2739C173.375 64.2504 173.913 62.6356 174.989 61.4296C176.066 60.2236 177.543 59.6206 179.421 59.6206C181.064 59.6206 182.379 60.09 183.367 61.0289C184.362 61.9597 184.868 63.2022 184.884 64.7562H181.594C181.578 64.0763 181.367 63.5259 180.963 63.105C180.558 62.6761 180.024 62.4616 179.36 62.4616C178.543 62.4616 177.923 62.7611 177.503 63.36C177.09 63.9509 176.883 64.9141 176.883 66.2496V66.6138C176.883 67.9655 177.09 68.9368 177.503 69.5277C177.915 70.1185 178.543 70.414 179.384 70.414ZM186.341 66.3103C186.341 65.0071 186.592 63.8457 187.094 62.8258C187.596 61.806 188.316 61.0168 189.255 60.4583C190.202 59.8998 191.299 59.6206 192.545 59.6206C194.318 59.6206 195.763 60.1629 196.88 61.2475C198.005 62.3321 198.632 63.8052 198.762 65.6668L198.786 66.5652C198.786 68.5807 198.223 70.1995 197.098 71.4217C195.973 72.6358 194.464 73.2428 192.57 73.2428C190.676 73.2428 189.162 72.6358 188.029 71.4217C186.904 70.2076 186.341 68.5564 186.341 66.4681V66.3103ZM189.85 66.5652C189.85 67.8117 190.085 68.7668 190.554 69.4305C191.024 70.0861 191.695 70.414 192.57 70.414C193.419 70.414 194.083 70.0902 194.561 69.4427C195.038 68.7871 195.277 67.7429 195.277 66.3103C195.277 65.0881 195.038 64.1411 194.561 63.4693C194.083 62.7975 193.411 62.4616 192.545 62.4616C191.687 62.4616 191.024 62.7975 190.554 63.4693C190.085 64.133 189.85 65.165 189.85 66.5652ZM208.329 63.1536C207.851 63.0889 207.43 63.0565 207.066 63.0565C205.739 63.0565 204.868 63.5057 204.456 64.4041V73H200.947V59.8634H204.261L204.359 61.4296C205.063 60.2236 206.038 59.6206 207.285 59.6206C207.673 59.6206 208.037 59.6732 208.377 59.7784L208.329 63.1536ZM209.239 66.3346C209.239 64.2868 209.697 62.6558 210.611 61.4417C211.534 60.2276 212.793 59.6206 214.387 59.6206C215.666 59.6206 216.722 60.0981 217.556 61.0532V54.3514H221.077V73H217.908L217.738 71.6038C216.864 72.6965 215.739 73.2428 214.363 73.2428C212.817 73.2428 211.574 72.6358 210.635 71.4217C209.705 70.1995 209.239 68.5038 209.239 66.3346ZM212.748 66.5895C212.748 67.8198 212.962 68.7628 213.391 69.4184C213.82 70.074 214.444 70.4018 215.261 70.4018C216.346 70.4018 217.111 69.9445 217.556 69.0299V63.8457C217.119 62.931 216.362 62.4737 215.285 62.4737C213.594 62.4737 212.748 63.8457 212.748 66.5895Z" fill="white"/>
<path d="M71.4833 21C70.7498 22.3138 70.096 23.6705 69.5257 25.063C63.9216 24.1767 58.2131 24.1767 52.609 25.063C52.0387 23.6705 51.385 22.3138 50.6514 21C45.3725 21.902 40.2406 23.5173 35.3968 25.8017C26.7351 38.3019 22.807 53.4777 24.316 68.6105C29.9607 72.8539 36.2961 76.0903 43.0426 78.1769C44.5788 76.1477 45.9498 73.9985 47.1425 71.7501C44.9414 70.9385 42.8258 69.9116 40.8264 68.6844C41.3748 68.3195 41.8935 67.912 42.3777 67.4655C48.2079 70.2738 54.5961 71.7321 61.0674 71.7321C67.5387 71.7321 73.9268 70.2738 79.757 67.4655C80.2741 67.9087 80.7912 68.315 81.3083 68.6844C79.2981 69.902 77.1846 70.9402 74.9922 71.787C76.1354 74.0864 77.4698 76.2857 78.9813 78.3616C85.7194 76.2822 92.0438 73.045 97.671 68.7952C99.2163 53.6596 95.2849 38.4714 86.5901 25.9864C81.8008 23.6547 76.7196 21.9776 71.4833 21V21ZM48.8046 59.9675C46.9563 59.8348 45.2312 58.9912 43.9916 57.6138C42.7519 56.2364 42.0941 54.4323 42.1561 52.5803C42.0847 50.7258 42.7393 48.9165 43.9808 47.5371C45.2223 46.1576 46.9529 45.3167 48.8046 45.1931C50.6564 45.3167 52.3869 46.1576 53.6284 47.5371C54.8699 48.9165 55.5245 50.7258 55.4531 52.5803C55.5245 54.4348 54.8699 56.244 53.6284 57.6235C52.3869 59.0029 50.6564 59.8439 48.8046 59.9675V59.9675ZM73.3301 59.9675C71.4818 59.8348 69.7567 58.9912 68.5171 57.6138C67.2774 56.2364 66.6196 54.4323 66.6816 52.5803C66.6102 50.7258 67.2648 48.9165 68.5063 47.5371C69.7478 46.1576 71.4784 45.3167 73.3301 45.1931C75.1853 45.3075 76.9214 46.1457 78.1648 47.5272C79.4083 48.9088 80.0596 50.7233 79.9786 52.5803C80.0596 54.4372 79.4083 56.2518 78.1648 57.6333C76.9214 59.0149 75.1853 59.8531 73.3301 59.9675V59.9675Z" stroke="white" stroke-width="3.5"/>
</svg>
