<svg width="274" height="100" viewBox="0 0 274 100" fill="none" xmlns="http://www.w3.org/2000/svg">
<rect width="274" height="100" rx="15" fill="#24D266"/>
<path d="M72.656 56.354C71.854 55.948 67.948 54.042 67.218 53.77C66.488 53.51 65.958 53.374 65.426 54.176C64.906 54.958 63.374 56.748 62.906 57.27C62.438 57.792 61.978 57.832 61.188 57.478C60.386 57.072 57.824 56.238 54.782 53.51C52.406 51.396 50.824 48.792 50.354 47.99C49.886 47.198 50.302 46.75 50.698 46.354C51.062 45.99 51.5 45.438 51.906 44.958C52.292 44.478 52.416 44.156 52.698 43.636C52.958 43.074 52.824 42.636 52.626 42.24C52.428 41.844 50.834 37.918 50.168 36.354C49.532 34.802 48.866 35 48.376 35C47.918 34.958 47.386 34.958 46.856 34.958C46.326 34.958 45.46 35.156 44.73 35.916C44 36.718 41.938 38.634 41.938 42.51C41.938 46.396 44.792 50.156 45.188 50.718C45.594 51.238 50.802 59.238 58.792 62.676C60.698 63.478 62.178 63.958 63.334 64.354C65.24 64.958 66.98 64.874 68.354 64.676C69.874 64.426 73.062 62.748 73.73 60.874C74.408 58.988 74.408 57.426 74.21 57.072C74.012 56.708 73.492 56.51 72.69 56.156L72.656 56.354ZM58.166 76H58.124C53.394 76 48.718 74.718 44.634 72.322L43.676 71.75L33.676 74.354L36.364 64.624L35.718 63.624C33.0769 59.4247 31.6758 54.5648 31.676 49.604C31.676 35.084 43.562 23.24 58.186 23.24C65.27 23.24 71.916 26 76.916 31C79.3825 33.4372 81.3391 36.3412 82.6714 39.5425C84.0037 42.7439 84.6852 46.1785 84.676 49.646C84.656 64.156 72.78 76 58.176 76H58.166ZM80.718 27.198C74.634 21.322 66.634 18 58.124 18C40.572 18 26.28 32.23 26.27 49.718C26.27 55.302 27.728 60.75 30.52 65.572L26 82L42.896 77.594C47.5766 80.1175 52.8085 81.4449 58.126 81.458H58.136C75.698 81.458 89.99 67.228 90 49.728C90 41.26 86.698 33.29 80.678 27.3L80.718 27.198Z" fill="white"/>
<path d="M142.458 26.3226H144.801V38.8401C144.801 40.5317 144.291 41.8551 143.271 42.8102C142.26 43.7653 140.908 44.2428 139.216 44.2428C137.46 44.2428 136.092 43.7936 135.113 42.8952C134.133 41.9967 133.643 40.7381 133.643 39.1193H135.975C135.975 40.1311 136.25 40.9202 136.8 41.4868C137.359 42.0534 138.164 42.3367 139.216 42.3367C140.179 42.3367 140.956 42.0332 141.547 41.4261C142.146 40.819 142.45 39.9692 142.458 38.8765V26.3226ZM147.824 37.3103C147.824 36.0233 148.075 34.8659 148.577 33.8379C149.087 32.81 149.791 32.0168 150.69 31.4583C151.596 30.8998 152.628 30.6206 153.785 30.6206C155.574 30.6206 157.019 31.2398 158.12 32.4781C159.229 33.7165 159.783 35.3637 159.783 37.4196V37.5774C159.783 38.8562 159.536 40.0056 159.043 41.0254C158.557 42.0372 157.857 42.8264 156.942 43.3929C156.036 43.9595 154.991 44.2428 153.81 44.2428C152.029 44.2428 150.584 43.6236 149.475 42.3852C148.375 41.1469 147.824 39.5078 147.824 37.4681V37.3103ZM150.082 37.5774C150.082 39.0343 150.418 40.2039 151.09 41.0861C151.77 41.9684 152.677 42.4095 153.81 42.4095C154.951 42.4095 155.858 41.9644 156.529 41.074C157.201 40.1756 157.537 38.921 157.537 37.3103C157.537 35.8695 157.193 34.704 156.505 33.8137C155.825 32.9152 154.919 32.466 153.785 32.466C152.677 32.466 151.782 32.9071 151.102 33.7894C150.422 34.6716 150.082 35.9343 150.082 37.5774ZM165.04 44H162.794V30.8634H165.04V44ZM162.612 27.3789C162.612 27.0147 162.721 26.7071 162.94 26.4562C163.166 26.2053 163.498 26.0798 163.935 26.0798C164.372 26.0798 164.704 26.2053 164.931 26.4562C165.158 26.7071 165.271 27.0147 165.271 27.3789C165.271 27.7431 165.158 28.0467 164.931 28.2895C164.704 28.5323 164.372 28.6537 163.935 28.6537C163.498 28.6537 163.166 28.5323 162.94 28.2895C162.721 28.0467 162.612 27.7431 162.612 27.3789ZM170.771 30.8634L170.844 32.5146C171.847 31.2519 173.159 30.6206 174.777 30.6206C177.554 30.6206 178.954 32.1868 178.978 35.3192V44H176.732V35.307C176.724 34.36 176.505 33.6599 176.076 33.2066C175.656 32.7533 174.996 32.5267 174.097 32.5267C173.369 32.5267 172.73 32.721 172.179 33.1095C171.629 33.498 171.2 34.0079 170.892 34.6393V44H168.646V30.8634H170.771ZM196.643 42.7009C195.769 43.7288 194.486 44.2428 192.795 44.2428C191.394 44.2428 190.326 43.8381 189.589 43.0287C188.861 42.2112 188.493 41.0052 188.485 39.4107V30.8634H190.731V39.35C190.731 41.3411 191.54 42.3367 193.159 42.3367C194.875 42.3367 196.016 41.6972 196.583 40.4184V30.8634H198.829V44H196.692L196.643 42.7009ZM209.901 40.5155C209.901 39.9085 209.671 39.439 209.209 39.1072C208.756 38.7672 207.959 38.4758 206.818 38.233C205.684 37.9902 204.782 37.6988 204.11 37.3588C203.446 37.0189 202.953 36.6142 202.629 36.1447C202.313 35.6753 202.155 35.1168 202.155 34.4693C202.155 33.3928 202.609 32.4822 203.515 31.7375C204.43 30.9929 205.595 30.6206 207.012 30.6206C208.501 30.6206 209.707 31.005 210.63 31.774C211.561 32.5429 212.026 33.5263 212.026 34.7242H209.768C209.768 34.1091 209.505 33.5789 208.979 33.1338C208.461 32.6886 207.805 32.466 207.012 32.466C206.194 32.466 205.555 32.6441 205.094 33.0002C204.632 33.3563 204.401 33.8218 204.401 34.3964C204.401 34.9387 204.616 35.3475 205.045 35.6227C205.474 35.8979 206.247 36.1609 207.364 36.4118C208.489 36.6628 209.4 36.9622 210.096 37.3103C210.792 37.6583 211.306 38.0792 211.638 38.573C211.978 39.0586 212.147 39.6535 212.147 40.3577C212.147 41.5313 211.678 42.4743 210.739 43.1865C209.8 43.8907 208.582 44.2428 207.085 44.2428C206.032 44.2428 205.102 44.0567 204.292 43.6843C203.483 43.312 202.847 42.794 202.386 42.1303C201.933 41.4585 201.706 40.7341 201.706 39.957H203.952C203.993 40.7098 204.292 41.3087 204.851 41.7539C205.417 42.191 206.162 42.4095 207.085 42.4095C207.935 42.4095 208.614 42.2395 209.124 41.8996C209.642 41.5516 209.901 41.0902 209.901 40.5155ZM220.646 37.3103C220.646 36.0233 220.897 34.8659 221.399 33.8379C221.909 32.81 222.613 32.0168 223.512 31.4583C224.418 30.8998 225.45 30.6206 226.607 30.6206C228.396 30.6206 229.841 31.2398 230.942 32.4781C232.051 33.7165 232.605 35.3637 232.605 37.4196V37.5774C232.605 38.8562 232.358 40.0056 231.865 41.0254C231.379 42.0372 230.679 42.8264 229.764 43.3929C228.858 43.9595 227.813 44.2428 226.632 44.2428C224.851 44.2428 223.406 43.6236 222.297 42.3852C221.197 41.1469 220.646 39.5078 220.646 37.4681V37.3103ZM222.904 37.5774C222.904 39.0343 223.24 40.2039 223.912 41.0861C224.592 41.9684 225.499 42.4095 226.632 42.4095C227.773 42.4095 228.68 41.9644 229.351 41.074C230.023 40.1756 230.359 38.921 230.359 37.3103C230.359 35.8695 230.015 34.704 229.327 33.8137C228.647 32.9152 227.741 32.466 226.607 32.466C225.499 32.466 224.604 32.9071 223.924 33.7894C223.244 34.6716 222.904 35.9343 222.904 37.5774ZM237.547 30.8634L237.619 32.5146C238.623 31.2519 239.934 30.6206 241.553 30.6206C244.329 30.6206 245.73 32.1868 245.754 35.3192V44H243.508V35.307C243.5 34.36 243.281 33.6599 242.852 33.2066C242.431 32.7533 241.772 32.5267 240.873 32.5267C240.145 32.5267 239.505 32.721 238.955 33.1095C238.405 33.498 237.976 34.0079 237.668 34.6393V44H235.422V30.8634H237.547ZM148.346 67.9008L150.726 55.3226H154.356L150.435 73H146.768L143.891 61.1746L141.013 73H137.346L133.425 55.3226H137.055L139.447 67.8765L142.361 55.3226H145.445L148.346 67.9008ZM159.528 61.296C160.459 60.1791 161.629 59.6206 163.037 59.6206C165.886 59.6206 167.331 61.2758 167.371 64.5863V73H163.863V64.6834C163.863 63.9306 163.701 63.3762 163.377 63.0201C163.053 62.6558 162.515 62.4737 161.762 62.4737C160.734 62.4737 159.99 62.8703 159.528 63.6635V73H156.019V54.3514H159.528V61.296ZM177.63 73C177.469 72.6843 177.351 72.2918 177.278 71.8223C176.429 72.7693 175.324 73.2428 173.964 73.2428C172.677 73.2428 171.609 72.8705 170.759 72.1258C169.917 71.3812 169.496 70.4423 169.496 69.3091C169.496 67.9169 170.01 66.8485 171.038 66.1039C172.074 65.3592 173.567 64.9829 175.518 64.9748H177.133V64.222C177.133 63.615 176.975 63.1293 176.659 62.7651C176.352 62.4009 175.862 62.2188 175.19 62.2188C174.599 62.2188 174.134 62.3604 173.794 62.6437C173.462 62.927 173.296 63.3155 173.296 63.8092H169.787C169.787 63.0484 170.022 62.3442 170.492 61.6967C170.961 61.0492 171.625 60.5433 172.483 60.1791C173.341 59.8067 174.304 59.6206 175.372 59.6206C176.991 59.6206 178.274 60.0293 179.221 60.8468C180.176 61.6562 180.654 62.7975 180.654 64.2706V69.9647C180.662 71.2112 180.836 72.1542 181.176 72.7936V73H177.63ZM174.729 70.5596C175.247 70.5596 175.724 70.4463 176.161 70.2197C176.598 69.985 176.922 69.6734 177.133 69.2848V67.0266H175.821C174.065 67.0266 173.13 67.6337 173.017 68.8478L173.005 69.0542C173.005 69.4912 173.159 69.8514 173.466 70.1347C173.774 70.418 174.195 70.5596 174.729 70.5596ZM187.55 56.6339V59.8634H189.796V62.4373H187.55V68.9935C187.55 69.4791 187.643 69.8271 187.829 70.0376C188.015 70.248 188.371 70.3533 188.897 70.3533C189.286 70.3533 189.63 70.3249 189.929 70.2683V72.9272C189.241 73.1376 188.533 73.2428 187.805 73.2428C185.344 73.2428 184.09 72.0004 184.041 69.5155V62.4373H182.123V59.8634H184.041V56.6339H187.55ZM198.865 69.3698C198.865 68.9408 198.651 68.6049 198.222 68.3621C197.801 68.1112 197.121 67.8886 196.182 67.6944C193.058 67.0387 191.496 65.7113 191.496 63.7121C191.496 62.5466 191.977 61.5753 192.94 60.7982C193.912 60.0131 195.178 59.6206 196.74 59.6206C198.408 59.6206 199.739 60.0131 200.735 60.7982C201.739 61.5834 202.24 62.6032 202.24 63.8578H198.732C198.732 63.356 198.57 62.9432 198.246 62.6194C197.922 62.2875 197.416 62.1216 196.728 62.1216C196.137 62.1216 195.68 62.2552 195.356 62.5223C195.033 62.7894 194.871 63.1293 194.871 63.5421C194.871 63.9306 195.053 64.2463 195.417 64.4891C195.789 64.7239 196.413 64.9303 197.287 65.1083C198.161 65.2783 198.898 65.4726 199.497 65.6911C201.35 66.371 202.277 67.5487 202.277 69.2241C202.277 70.4221 201.763 71.3933 200.735 72.138C199.707 72.8745 198.38 73.2428 196.753 73.2428C195.652 73.2428 194.672 73.0486 193.815 72.6601C192.965 72.2634 192.297 71.7252 191.811 71.0453C191.326 70.3573 191.083 69.6167 191.083 68.8235H194.409C194.442 69.4467 194.672 69.9243 195.101 70.2561C195.53 70.588 196.105 70.7539 196.825 70.7539C197.497 70.7539 198.003 70.6284 198.343 70.3775C198.691 70.1185 198.865 69.7826 198.865 69.3698ZM214.758 69.3577H208.372L207.158 73H203.285L209.865 55.3226H213.24L219.857 73H215.984L214.758 69.3577ZM209.355 66.4074H213.774L211.553 59.7905L209.355 66.4074ZM232.52 66.5531C232.52 68.5766 232.059 70.1995 231.136 71.4217C230.221 72.6358 228.983 73.2428 227.421 73.2428C226.093 73.2428 225.021 72.7815 224.204 71.8587V78.0507H220.695V59.8634H223.949L224.07 61.1503C224.92 60.1305 226.029 59.6206 227.397 59.6206C229.015 59.6206 230.274 60.2195 231.173 61.4174C232.071 62.6154 232.52 64.2665 232.52 66.371V66.5531ZM229.011 66.2981C229.011 65.0759 228.793 64.133 228.356 63.4693C227.927 62.8056 227.3 62.4737 226.474 62.4737C225.373 62.4737 224.616 62.8946 224.204 63.7364V69.1149C224.633 69.9809 225.397 70.414 226.498 70.414C228.174 70.414 229.011 69.042 229.011 66.2981ZM246.531 66.5531C246.531 68.5766 246.07 70.1995 245.147 71.4217C244.232 72.6358 242.994 73.2428 241.432 73.2428C240.104 73.2428 239.032 72.7815 238.214 71.8587V78.0507H234.706V59.8634H237.959L238.081 61.1503C238.931 60.1305 240.04 59.6206 241.407 59.6206C243.026 59.6206 244.285 60.2195 245.183 61.4174C246.082 62.6154 246.531 64.2665 246.531 66.371V66.5531ZM243.022 66.2981C243.022 65.0759 242.804 64.133 242.367 63.4693C241.938 62.8056 241.31 62.4737 240.485 62.4737C239.384 62.4737 238.627 62.8946 238.214 63.7364V69.1149C238.643 69.9809 239.408 70.414 240.509 70.414C242.184 70.414 243.022 69.042 243.022 66.2981Z" fill="white"/>
</svg>
