<svg width="100" height="100" viewBox="0 0 368 368" fill="none" xmlns="http://www.w3.org/2000/svg">
<circle cx="184" cy="184" r="184" fill="url(#paint0_linear)"/>
<path d="M298.495 100.865H69.824C65.135 100.865 61.3337 104.481 61.3337 108.942V202.116C61.3337 206.576 65.135 210.192 69.824 210.192H298.495C303.184 210.192 306.986 206.576 306.986 202.116V108.942C306.986 104.481 303.184 100.865 298.495 100.865Z" stroke="white" stroke-width="2.54341"/>
<path d="M62.2095 122.102C68.3948 122.102 73.409 126.871 73.409 132.755V177.971C73.409 183.855 68.3948 188.625 62.2095 188.625V122.102Z" fill="white"/>
<path d="M304.141 136.356C304.141 135.726 303.604 135.215 302.941 135.215C302.278 135.215 301.741 135.726 301.741 136.356V174.264C301.741 174.895 302.278 175.406 302.941 175.406C303.604 175.406 304.141 174.895 304.141 174.264V136.356Z" fill="white"/>
<path d="M163.257 163.816C163.605 164.24 163.929 164.651 164.229 165.05C164.553 165.424 164.877 165.822 165.201 166.246C164.503 166.794 163.718 167.231 162.845 167.555C161.973 167.879 161.026 168.041 160.004 168.041C158.858 168.041 157.774 167.829 156.752 167.405C155.755 166.956 154.882 166.358 154.135 165.611C153.387 164.863 152.789 163.991 152.34 162.994C151.917 161.997 151.705 160.938 151.705 159.816C151.705 158.695 151.917 157.635 152.34 156.638C152.789 155.641 153.387 154.782 154.135 154.059C154.882 153.311 155.755 152.725 156.752 152.302C157.774 151.853 158.858 151.629 160.004 151.629C161.051 151.629 162.01 151.791 162.883 152.115C163.78 152.439 164.59 152.875 165.313 153.423L163.257 155.853C162.833 155.504 162.347 155.243 161.799 155.068C161.25 154.869 160.652 154.769 160.004 154.769C159.256 154.769 158.571 154.906 157.948 155.18C157.325 155.43 156.777 155.779 156.303 156.227C155.854 156.676 155.506 157.212 155.256 157.835C155.007 158.433 154.882 159.093 154.882 159.816C154.882 160.539 155.007 161.212 155.256 161.835C155.506 162.433 155.854 162.969 156.303 163.442C156.777 163.891 157.325 164.252 157.948 164.526C158.571 164.776 159.256 164.9 160.004 164.9C160.652 164.9 161.25 164.813 161.799 164.639C162.347 164.439 162.833 164.165 163.257 163.816ZM171.823 167.667H168.646V138.619H171.823V167.667ZM176.204 146.059C176.204 145.46 176.416 144.962 176.839 144.563C177.288 144.164 177.762 143.965 178.26 143.965C178.759 143.965 179.22 144.164 179.643 144.563C180.067 144.962 180.279 145.46 180.279 146.059C180.279 146.657 180.067 147.155 179.643 147.554C179.22 147.928 178.759 148.115 178.26 148.115C177.762 148.115 177.288 147.928 176.839 147.554C176.416 147.155 176.204 146.657 176.204 146.059ZM179.793 167.667H176.615V152.04H179.793V167.667ZM185.895 145.161H189.072V152.078H193.259V154.919H189.072V167.667H185.895V154.919H183.091V152.078H185.895V145.161ZM209.075 165.835C208.328 166.508 207.418 167.044 206.346 167.442C205.275 167.841 204.178 168.041 203.057 168.041C201.91 168.041 200.826 167.829 199.804 167.405C198.807 166.956 197.935 166.371 197.187 165.648C196.44 164.9 195.841 164.028 195.393 163.031C194.969 162.034 194.757 160.975 194.757 159.853C194.757 158.732 194.969 157.673 195.393 156.676C195.841 155.679 196.44 154.807 197.187 154.059C197.935 153.311 198.795 152.725 199.767 152.302C200.764 151.853 201.823 151.629 202.944 151.629C204.714 151.629 206.247 152.165 207.543 153.236C208.864 154.283 209.811 155.666 210.384 157.386C209.611 157.66 208.726 157.997 207.73 158.395C206.733 158.794 205.698 159.218 204.627 159.667C203.555 160.09 202.483 160.514 201.412 160.938C200.34 161.361 199.343 161.748 198.421 162.096C198.845 162.944 199.455 163.629 200.253 164.153C201.075 164.651 201.985 164.9 202.982 164.9C203.655 164.9 204.328 164.776 205.001 164.526C205.698 164.277 206.259 163.941 206.683 163.517L209.075 165.835ZM206.384 156.638C206.085 156.015 205.611 155.554 204.963 155.255C204.315 154.931 203.655 154.769 202.982 154.769C202.259 154.769 201.586 154.906 200.963 155.18C200.365 155.455 199.841 155.828 199.393 156.302C198.944 156.751 198.583 157.274 198.309 157.872C198.06 158.47 197.935 159.081 197.935 159.704C197.935 159.829 197.935 159.916 197.935 159.966C197.96 160.015 197.972 160.053 197.972 160.078C198.62 159.829 199.318 159.554 200.066 159.255C200.838 158.931 201.599 158.62 202.346 158.321C203.094 157.997 203.817 157.698 204.515 157.423C205.212 157.124 205.835 156.863 206.384 156.638Z" fill="white"/>
<path d="M281.664 214.73H92.2281C87.5704 214.73 83.7947 218.506 83.7947 223.163C83.7947 227.821 87.5704 231.597 92.2281 231.597H281.664C286.322 231.597 290.098 227.821 290.098 223.163C290.098 218.506 286.322 214.73 281.664 214.73Z" fill="white"/>
<path d="M146.629 282.052L170.521 231.214C172.406 227.202 170.618 222.568 166.527 220.862C162.436 219.156 157.591 221.025 155.706 225.036L131.814 275.875C129.929 279.887 131.717 284.521 135.808 286.227C139.899 287.933 144.743 286.064 146.629 282.052Z" fill="white"/>
<path d="M205.378 231.535C203.435 227.402 205.333 222.483 209.548 220.725C213.507 219.074 218.065 220.832 219.89 224.715L243.784 275.553C245.726 279.686 243.829 284.605 239.614 286.363C235.654 288.014 231.097 286.256 229.272 282.374L205.378 231.535Z" fill="white"/>
<path d="M197.699 83.6365H171.92C168.299 83.6365 165.363 86.5719 165.363 90.193C165.363 93.8141 168.299 96.7496 171.92 96.7496H197.699C201.32 96.7496 204.255 93.8141 204.255 90.193C204.255 86.5719 201.32 83.6365 197.699 83.6365Z" fill="white"/>
<defs>
<linearGradient id="paint0_linear" x1="69.697" y1="30.6667" x2="287.152" y2="320.606" gradientUnits="userSpaceOnUse">
<stop stop-color="#64C4E1"/>
<stop offset="1" stop-color="#0E91E7"/>
</linearGradient>
</defs>
</svg>
