<svg width="180" height="66.51" viewBox="0 0 172 143" fill="none" xmlns="http://www.w3.org/2000/svg">
<path d="M165.124 11.9231H6.87558C3.63058 11.9231 1 14.4254 1 17.5122V81.9921C1 85.0787 3.63058 87.5812 6.87558 87.5812H165.124C168.369 87.5812 171 85.0787 171 81.9921V17.5122C171 14.4254 168.369 11.9231 165.124 11.9231Z" stroke="white" stroke-width="1.83015"/>
<path d="M1.60608 26.6192C5.88655 26.6192 9.35659 29.92 9.35659 33.9918V65.2832C9.35659 69.355 5.88655 72.6558 1.60608 72.6558V26.6192Z" fill="white"/>
<path d="M169.031 36.484C169.031 36.0478 168.66 35.6941 168.201 35.6941C167.742 35.6941 167.371 36.0478 167.371 36.484V62.7179C167.371 63.1542 167.742 63.5078 168.201 63.5078C168.66 63.5078 169.031 63.1542 169.031 62.7179V36.484Z" fill="white"/>
<path d="M71.8842 56.2396C72.1353 56.5445 72.3684 56.8404 72.5836 57.1273C72.8168 57.3963 73.0499 57.6833 73.283 57.9882C72.7809 58.3827 72.216 58.6965 71.5883 58.9297C70.9606 59.1628 70.2791 59.2794 69.5439 59.2794C68.7189 59.2794 67.9388 59.1269 67.2035 58.8221C66.4862 58.4993 65.8585 58.0689 65.3205 57.5308C64.7825 56.9928 64.3521 56.3652 64.0293 55.6478C63.7244 54.9305 63.572 54.1683 63.572 53.3613C63.572 52.5543 63.7244 51.7921 64.0293 51.0747C64.3521 50.3574 64.7825 49.7387 65.3205 49.2186C65.8585 48.6806 66.4862 48.2591 67.2035 47.9543C67.9388 47.6315 68.7189 47.4701 69.5439 47.4701C70.2971 47.4701 70.9875 47.5866 71.6152 47.8198C72.2608 48.0529 72.8437 48.3668 73.3637 48.7613L71.8842 50.5098C71.5793 50.2588 71.2296 50.0704 70.8351 49.9449C70.4405 49.8014 70.0101 49.7297 69.5439 49.7297C69.0059 49.7297 68.5127 49.8283 68.0643 50.0256C67.616 50.205 67.2215 50.456 66.8807 50.7788C66.5579 51.1016 66.3068 51.4872 66.1275 51.9355C65.9482 52.366 65.8585 52.8412 65.8585 53.3613C65.8585 53.8814 65.9482 54.3656 66.1275 54.8139C66.3068 55.2443 66.5579 55.6299 66.8807 55.9706C67.2215 56.2934 67.616 56.5535 68.0643 56.7507C68.5127 56.9301 69.0059 57.0197 69.5439 57.0197C70.0101 57.0197 70.4405 56.957 70.8351 56.8314C71.2296 56.688 71.5793 56.4907 71.8842 56.2396ZM78.0487 59.0104H75.7621V38.1087H78.0487V59.0104ZM81.2007 43.4619C81.2007 43.0315 81.3532 42.6728 81.658 42.3859C81.9808 42.0989 82.3216 41.9555 82.6802 41.9555C83.0389 41.9555 83.3707 42.0989 83.6756 42.3859C83.9804 42.6728 84.1329 43.0315 84.1329 43.4619C84.1329 43.8923 83.9804 44.251 83.6756 44.5379C83.3707 44.8069 83.0389 44.9414 82.6802 44.9414C82.3216 44.9414 81.9808 44.8069 81.658 44.5379C81.3532 44.251 81.2007 43.8923 81.2007 43.4619ZM83.7832 59.0104H81.4966V47.766H83.7832V59.0104ZM88.1739 42.8163H90.4604V47.7929H93.4733V49.8373H90.4604V59.0104H88.1739V49.8373H86.1564V47.7929H88.1739V42.8163ZM104.854 57.6923C104.316 58.1765 103.661 58.562 102.89 58.849C102.119 59.1359 101.33 59.2794 100.523 59.2794C99.698 59.2794 98.9179 59.1269 98.1826 58.8221C97.4653 58.4993 96.8376 58.0778 96.2996 57.5577C95.7616 57.0197 95.3312 56.3921 95.0084 55.6747C94.7035 54.9574 94.551 54.1952 94.551 53.3882C94.551 52.5812 94.7035 51.819 95.0084 51.1016C95.3312 50.3843 95.7616 49.7566 96.2996 49.2186C96.8376 48.6806 97.4563 48.2591 98.1557 47.9543C98.8731 47.6315 99.6352 47.4701 100.442 47.4701C101.716 47.4701 102.818 47.8556 103.751 48.6268C104.701 49.38 105.383 50.3753 105.795 51.6127C105.24 51.81 104.603 52.0521 103.886 52.3391C103.168 52.626 102.424 52.9309 101.653 53.2537C100.882 53.5585 100.11 53.8634 99.3393 54.1683C98.5682 54.4732 97.8508 54.7511 97.1873 55.0022C97.4922 55.6119 97.9315 56.1051 98.5054 56.4817C99.0972 56.8404 99.7518 57.0197 100.469 57.0197C100.953 57.0197 101.438 56.9301 101.922 56.7507C102.424 56.5714 102.827 56.3293 103.132 56.0244L104.854 57.6923ZM102.917 51.0747C102.702 50.6264 102.361 50.2946 101.895 50.0794C101.429 49.8463 100.953 49.7297 100.469 49.7297C99.9491 49.7297 99.4649 49.8283 99.0165 50.0256C98.5861 50.2229 98.2095 50.4919 97.8867 50.8326C97.5639 51.1554 97.3039 51.532 97.1066 51.9624C96.9273 52.3929 96.8376 52.8322 96.8376 53.2806C96.8376 53.3702 96.8376 53.433 96.8376 53.4689C96.8555 53.5047 96.8645 53.5316 96.8645 53.5496C97.3308 53.3702 97.8329 53.173 98.3709 52.9578C98.9269 52.7246 99.4738 52.5005 100.012 52.2853C100.55 52.0521 101.07 51.8369 101.572 51.6396C102.074 51.4244 102.523 51.2361 102.917 51.0747Z" fill="white"/>
<path d="M153.477 90.7214H22.3799C19.1567 90.7214 16.5437 93.3343 16.5437 96.5576C16.5437 99.7809 19.1567 102.394 22.3799 102.394H153.477C156.7 102.394 159.313 99.7809 159.313 96.5576C159.313 93.3343 156.7 90.7214 153.477 90.7214Z" fill="white"/>
<path d="M60.0272 137.311L76.5613 102.129C77.8659 99.3527 76.6284 96.1453 73.7974 94.9649C70.9663 93.7844 67.6137 95.0779 66.309 97.8539L49.775 133.036C48.4704 135.812 49.7078 139.02 52.5389 140.2C55.3699 141.381 58.7226 140.087 60.0272 137.311Z" fill="white"/>
<path d="M100.684 102.351C99.3393 99.4909 100.653 96.0868 103.57 94.8704V94.8704C106.31 93.7278 109.464 94.9445 110.727 97.6313L127.262 132.813C128.607 135.674 127.293 139.078 124.376 140.294V140.294C121.636 141.437 118.482 140.22 117.219 137.533L100.684 102.351Z" fill="white"/>
<path d="M95.3694 0H77.5296C75.0236 0 72.9922 2.03145 72.9922 4.53737C72.9922 7.04329 75.0236 9.07473 77.5296 9.07473H95.3694C97.8753 9.07473 99.9068 7.04329 99.9068 4.53737C99.9068 2.03145 97.8753 0 95.3694 0Z" fill="white"/>
</svg>
