<svg width="50" height="50" viewBox="0 0 50 50" fill="none" xmlns="http://www.w3.org/2000/svg">
<g clip-path="url(#clip0)">
<path d="M41.7254 0H8.27449C5.45362 0 3.15698 2.29664 3.15698 5.14247V38.893C3.15698 41.7389 5.45362 44.0355 8.27449 44.0355H36.5831L35.2599 39.4172L38.4553 42.3879L41.4759 45.1838L46.843 49.9268V5.14247C46.843 2.29664 44.5464 0 41.7254 0ZM32.0896 32.6022C32.0896 32.6022 31.1909 31.5288 30.442 30.5802C33.7123 29.6565 34.9604 27.6096 34.9604 27.6096C33.9368 28.2836 32.9633 28.7579 32.0896 29.0824C30.8415 29.6067 29.6432 29.9561 28.47 30.1558C26.0734 30.6051 23.8766 30.4804 22.0044 30.1309C20.5814 29.8563 19.3582 29.4568 18.3347 29.0575C17.7606 28.8328 17.1365 28.5582 16.5124 28.2087C16.4375 28.1587 16.3626 28.1338 16.2878 28.0838C16.2378 28.0589 16.2129 28.034 16.1879 28.009C15.7386 27.7594 15.4889 27.5846 15.4889 27.5846C15.4889 27.5846 16.6872 29.5817 19.8575 30.5302C19.1086 31.4788 18.185 32.6022 18.185 32.6022C12.6681 32.4275 10.5711 28.8079 10.5711 28.8079C10.5711 20.7696 14.1659 14.2541 14.1659 14.2541C17.7606 11.5581 21.1805 11.633 21.1805 11.633L21.4302 11.9325C16.9368 13.2306 14.8648 15.2027 14.8648 15.2027C14.8648 15.2027 15.414 14.9032 16.3377 14.4788C19.0088 13.3055 21.1307 12.981 22.0044 12.9061C22.1541 12.8811 22.279 12.8562 22.4288 12.8562C23.9515 12.6565 25.674 12.6065 27.4713 12.8062C29.8428 13.0808 32.3892 13.7798 34.9853 15.2027C34.9853 15.2027 33.0133 13.3305 28.7694 12.0324L29.1189 11.633C29.1189 11.633 32.5389 11.5581 36.1336 14.2541C36.1336 14.2541 39.7285 20.7696 39.7285 28.8079C39.7285 28.8079 37.6065 32.4275 32.0896 32.6022ZM20.4816 20.9444C19.0587 20.9444 17.9353 22.1925 17.9353 23.7152C17.9353 25.2381 19.0837 26.4862 20.4816 26.4862C21.9046 26.4862 23.0278 25.2381 23.0278 23.7152C23.0529 22.1925 21.9046 20.9444 20.4816 20.9444ZM29.5933 20.9444C28.1703 20.9444 27.0469 22.1925 27.0469 23.7152C27.0469 25.2381 28.1954 26.4862 29.5933 26.4862C31.0162 26.4862 32.1396 25.2381 32.1396 23.7152C32.1396 22.1925 31.0162 20.9444 29.5933 20.9444Z" fill="#0E91E7"/>
</g>
<defs>
<clipPath id="clip0">
<rect width="50" height="50" fill="white"/>
</clipPath>
</defs>
</svg>
