<svg width="225" height="181" viewBox="0 0 225 181" fill="none" xmlns="http://www.w3.org/2000/svg">
<path fill-rule="evenodd" clip-rule="evenodd" d="M224.767 73.2719C228.512 109.229 186.464 132.274 147.448 148.009C110.418 162.944 66.559 172.06 36.9631 149.015C2.15396 121.912 -11.7511 77.8269 11.3953 42.0741C34.37 6.58663 85.5672 -4.95585 132.227 1.8665C178.092 8.57252 220.688 34.1102 224.767 73.2719Z" fill="#A2DBE8"/>
<path d="M128.994 70.5837L125.234 68.5863L125.515 68.4366L129.275 70.4343L128.994 70.5837Z" fill="#FF6584"/>
<path d="M125.714 70.5837L125.433 70.4343L129.193 68.4366L129.474 68.5863L125.714 70.5837Z" fill="#FF6584"/>
<path d="M97.7321 55.1007L97.5507 55.4548L98.6127 55.9992L98.7942 55.6451L97.7321 55.1007Z" fill="#E6E3E3"/>
<path d="M119.752 66.8341L117.638 65.7506L117.82 65.3965L119.934 66.48L119.752 66.8341ZM115.524 64.6671L113.41 63.5836L113.592 63.2294L115.706 64.313L115.524 64.6671ZM111.296 62.5001L109.182 61.4166L109.364 61.0624L111.478 62.1459L111.296 62.5001ZM107.069 60.3331L104.955 59.2496L105.136 58.8955L107.25 59.979L107.069 60.3331ZM102.841 58.1662L100.727 57.0827L100.908 56.7285L103.022 57.812L102.841 58.1662Z" fill="white"/>
<path d="M122.048 67.5635L121.866 67.9176L122.928 68.462L123.11 68.1078L122.048 67.5635Z" fill="#E6E3E3"/>
<path d="M41.856 81.7374C41.856 81.8617 41.852 81.9849 41.844 82.1071C41.7988 82.8119 41.6208 83.5019 41.3193 84.1405C41.3169 84.146 41.3142 84.151 41.3119 84.1561C41.2979 84.1857 41.2834 84.2153 41.2686 84.2445C41.179 84.4252 41.0795 84.6007 40.9707 84.7705C40.4735 85.5498 39.7921 86.1946 38.9867 86.648C38.1812 87.1014 37.2766 87.3493 36.3526 87.3699L36.4083 90.5741L37.1347 90.1915L37.2644 90.4381L36.4137 90.8861L36.5177 96.837L36.5189 96.9165L35.9572 97.0415L35.9584 96.9617L36.1352 87.3703C35.3915 87.3597 34.6573 87.2013 33.9752 86.9045C33.2932 86.6077 32.6769 86.1783 32.1621 85.6413C32.1267 85.6046 32.0916 85.5669 32.0574 85.5295L32.0535 85.5252C31.6246 85.0573 31.2777 84.5204 31.0275 83.9371C31.0329 83.9433 31.0388 83.9492 31.0442 83.9554C30.4787 82.6327 30.4404 81.1437 30.937 79.7937C31.4337 78.4436 32.4278 77.3346 33.7155 76.6939C33.735 76.6842 33.7549 76.6749 33.7744 76.6651C35.0482 76.0514 36.5061 75.9388 37.859 76.3496C39.2119 76.7604 40.3612 77.6647 41.0789 78.8831C41.1132 78.9408 41.1464 78.9996 41.1783 79.0589C41.6241 79.8811 41.8571 80.802 41.856 81.7374Z" fill="#3AD29F" fill-opacity="0.75"/>
<path d="M41.4973 97.3467L40.7433 97.1351L40.7449 97.054L40.9708 84.7706L40.9821 84.1581L40.9823 84.1402L41.0219 81.9941L41.0791 78.8836L41.1179 76.7747H41.1387L41.1785 79.0589L41.2302 82.032L41.2673 84.1416V84.1572L41.2689 84.2442L41.3405 88.3568L41.3479 88.7654L41.4959 97.2649L41.4973 97.3467Z" fill="#21A377"/>
<path d="M42.2923 87.8555L41.0719 88.4982L41.242 88.8213L42.4624 88.1786L42.2923 87.8555Z" fill="#21A377"/>
<path d="M136.801 52.8755C127.483 52.3244 118.136 52.4681 108.839 53.3054C104.358 53.7105 99.8061 54.1481 95.4078 55.1258C91.8652 55.9133 87.7536 57.2443 85.5462 60.3444C85.084 60.969 84.7724 61.6922 84.636 62.4572C84.4996 63.2223 84.542 64.0086 84.7599 64.7546C85.2862 66.5218 86.5954 67.9928 87.9898 69.145C91.1989 71.7968 95.1806 73.3399 98.7373 75.4466C105.231 79.2932 111.175 84.4778 114.989 91.0639C116.668 93.962 118.265 97.8156 116.396 101.009C114.564 104.138 110.477 105.215 107.143 105.724C102.964 106.361 98.6603 106.188 94.4644 105.831C89.8643 105.402 85.2899 104.732 80.76 103.824C71.8857 102.119 63.0922 99.951 54.0946 98.965C49.5831 98.4343 45.0336 98.3027 40.499 98.5718C36.4038 98.8481 32.2734 99.496 28.4262 100.973C25.4616 102.111 22.3015 103.833 20.7002 106.705C19.1565 109.473 19.7586 112.666 21.4394 115.22C23.4618 118.293 26.6154 120.399 29.8941 121.938C33.6273 123.69 37.6202 124.826 41.6182 125.793C43.6459 126.283 45.6846 126.725 47.7234 127.166C48.1487 127.258 48.3305 126.605 47.9036 126.512C43.7921 125.624 39.6687 124.732 35.6593 123.446C31.949 122.255 28.1521 120.73 25.1137 118.231C22.6557 116.209 20.3186 113.255 20.4636 109.897C20.6099 106.511 23.4497 104.147 26.2331 102.692C29.7116 100.874 33.6636 99.9885 37.5361 99.5256C41.9702 99.0314 46.4419 98.9706 50.8878 99.344C59.8642 100.027 68.6401 102.072 77.4411 103.856C85.9911 105.589 94.808 107.194 103.57 106.75C107.043 106.573 110.764 106.076 113.831 104.322C115.235 103.52 116.501 102.387 117.214 100.914C117.857 99.5122 118.06 97.9486 117.797 96.429C117.3 93.0908 115.318 89.9956 113.34 87.3367C111.172 84.4529 108.657 81.8471 105.852 79.5783C102.774 77.1003 99.4544 74.9375 95.9442 73.1224C94.0827 72.1421 92.1948 71.1995 90.4209 70.0641C88.7199 68.9754 87.0421 67.6655 86.0034 65.8983C85.105 64.3697 84.9402 62.6251 85.876 61.0749C86.8224 59.5069 88.453 58.4133 90.061 57.6142C93.9352 55.6887 98.4393 55.1734 102.678 54.6452C111.779 53.5152 120.952 53.0578 130.12 53.2767C132.349 53.3291 134.576 53.4214 136.801 53.5535C137.237 53.5791 137.236 52.901 136.801 52.8755V52.8755Z" fill="black"/>
<path d="M130.89 31.1418L132.297 30.0158C131.204 29.8951 130.755 30.4916 130.571 30.9637C129.716 30.6089 128.786 31.0739 128.786 31.0739L131.603 32.0966C131.461 31.717 131.213 31.3858 130.89 31.1418Z" fill="#3F3D56"/>
<path d="M124.059 34.7067L125.467 33.5806C124.373 33.46 123.924 34.0565 123.74 34.5286C122.886 34.1738 121.956 34.6388 121.956 34.6388L124.772 35.6614C124.63 35.2819 124.383 34.9507 124.059 34.7067Z" fill="#3F3D56"/>
<path d="M130.89 40.351L132.297 39.225C131.204 39.1043 130.755 39.7008 130.571 40.173C129.716 39.8181 128.786 40.2831 128.786 40.2831L131.603 41.3058C131.461 40.9262 131.213 40.595 130.89 40.351Z" fill="#3F3D56"/>
<path d="M109.788 42.0193C112.13 42.0193 114.029 40.1202 114.029 37.7775C114.029 35.4349 112.13 33.5358 109.788 33.5358C107.446 33.5358 105.547 35.4349 105.547 37.7775C105.547 40.1202 107.446 42.0193 109.788 42.0193Z" fill="#FF6583"/>
<path d="M123.087 50.8485H102.282C102.256 50.8488 102.23 50.8467 102.205 50.8423L112.044 33.796C112.104 33.6898 112.192 33.6014 112.297 33.54C112.402 33.4785 112.522 33.4461 112.644 33.4461C112.766 33.4461 112.886 33.4785 112.991 33.54C113.096 33.6014 113.184 33.6898 113.244 33.796L119.847 45.235L120.163 45.7823L123.087 50.8485Z" fill="#64C4E1"/>
<path d="M134.67 50.8487H116.676L120.163 45.7829L120.413 45.4178L124.957 38.8162C125.037 38.7152 125.138 38.6322 125.253 38.5727C125.367 38.5132 125.493 38.4785 125.622 38.4708C125.75 38.4631 125.879 38.4826 126 38.5281C126.121 38.5735 126.231 38.6439 126.323 38.7346C126.346 38.7604 126.368 38.7877 126.388 38.8162L134.67 50.8487Z" fill="#64C4E1"/>
<path d="M104.988 89.9448C106.96 90.9306 108.161 92.2326 108.161 93.6607C108.161 96.7371 102.595 99.231 95.73 99.231C92.7451 99.231 90.0068 98.7592 87.8639 97.9735C90.1399 99.1114 93.4438 99.8278 97.1222 99.8278C103.988 99.8278 109.553 97.3339 109.553 94.2575C109.553 92.5187 107.774 90.9663 104.988 89.9448Z" fill="#64C4E1" fill-opacity="0.24"/>
<path d="M109.375 92.0579C111.6 93.1703 112.954 94.6395 112.954 96.2509C112.954 99.7223 106.674 102.536 98.9276 102.536C95.5595 102.536 92.4696 102.004 90.0516 101.117C92.6198 102.401 96.3479 103.21 100.499 103.21C108.245 103.21 114.525 100.396 114.525 96.9243C114.525 94.9622 112.518 93.2106 109.375 92.0579Z" fill="#64C4E1" fill-opacity="0.24"/>
<path d="M103.31 90.8755C104.699 91.57 105.545 92.4874 105.545 93.4935C105.545 95.6609 101.624 97.4179 96.7869 97.4179C94.9025 97.4423 93.0279 97.1426 91.245 96.5319C92.8485 97.3336 95.1762 97.8384 97.7677 97.8384C102.605 97.8384 106.526 96.0813 106.526 93.9139C106.526 92.6889 105.272 91.5952 103.31 90.8755Z" fill="#64C4E1" fill-opacity="0.24"/>
<path d="M83.7894 90.4777C83.7894 90.4777 84.0947 94.941 92.846 94.941C101.597 94.941 104.21 90.4777 104.21 90.4777H83.7894Z" fill="#3F3D56"/>
<path d="M96.211 78.767C94.9476 77.807 93.3619 77.3731 91.7859 77.5563C93.1943 77.8959 94.4381 78.7208 95.299 79.8863C96.16 81.0517 96.583 82.4833 96.4939 83.9296C96.4049 85.376 95.8094 86.7447 94.8119 87.7957C93.8145 88.8466 92.4789 89.5126 91.0394 89.6768C92.4163 90.0092 93.8656 89.8574 95.1437 89.2468C96.4218 88.6362 97.4507 87.604 98.0575 86.3239C98.6644 85.0438 98.812 83.5937 98.4757 82.2175C98.1395 80.8413 97.3397 79.6228 96.211 78.767Z" fill="#3F3D56"/>
<path d="M93.3434 76.7508H92.7467V90.9571H93.3434V76.7508Z" fill="#3F3D56"/>
<path d="M132.557 66.1955L132.553 66.19L132.545 65.843L134.415 63.1283L132.548 65.5832L132.541 65.6566L132.477 62.8819L134.092 60.0675L132.472 62.3945L132.489 56.646L132.489 56.6269L132.489 56.6457L132.382 61.1763L130.91 59.336L132.377 61.5666L132.345 64.0485L130.991 61.6262L132.34 64.4133L132.322 65.7934L132.272 69.6168L132.269 69.9025C132.393 69.9034 132.517 69.9014 132.639 69.8963L132.554 66.2238L132.557 66.1955Z" fill="#21A377"/>
<path d="M123.606 67.3891L123.603 67.3837L123.595 67.0366L125.465 64.322L123.597 66.7769L123.591 66.8503L123.527 64.0756L125.141 61.2611L123.522 63.5881L123.539 57.8397L123.539 57.8206L123.539 57.8394L123.431 62.3699L121.96 60.5296L123.427 62.7602L123.394 65.2421L122.04 62.8199L123.389 65.607L123.372 66.9871L123.322 70.8105L123.319 71.0962C123.443 71.0971 123.567 71.095 123.689 71.0899L123.604 67.4175L123.606 67.3891Z" fill="#21A377"/>
<path d="M127.982 63.6093L127.979 63.6039L127.971 63.2569L129.84 60.5422L127.973 62.9971L127.966 63.0705L127.903 60.2958L129.517 57.4813L127.898 59.8083L127.915 54.0599L127.915 54.0408L127.914 54.0596L127.807 58.5901L126.336 56.7498L127.802 58.9804L127.77 61.4623L126.416 59.0401L127.765 61.8272L127.747 63.2073L127.698 67.0307L127.694 67.3164C127.819 67.3173 127.942 67.3152 128.065 67.3101L127.98 63.6377L127.982 63.6093Z" fill="#21A377"/>
<path d="M54.0616 129.669C55.3798 129.669 56.4484 128.6 56.4484 127.281C56.4484 125.963 55.3798 124.894 54.0616 124.894C52.7435 124.894 51.6749 125.963 51.6749 127.281C51.6749 128.6 52.7435 129.669 54.0616 129.669Z" fill="#64C4E1"/>
<path d="M41.0978 84.1592C45.1753 84.1592 48.4807 80.853 48.4807 76.7746C48.4807 72.6962 45.1753 69.39 41.0978 69.39C37.0204 69.39 33.715 72.6962 33.715 76.7746C33.715 80.853 37.0204 84.1592 41.0978 84.1592Z" fill="#3AD29F" fill-opacity="0.75"/>
<ellipse cx="159.5" cy="175" rx="50.5" ry="6" fill="#E5E3E3"/>
<path opacity="0.2" d="M35.6465 71.8423C34.9578 73.4535 34.8644 75.2572 35.3829 76.9311C35.9014 78.6049 36.9981 80.0397 38.4769 80.9793C39.9557 81.9188 41.7204 82.3017 43.4555 82.0596C45.1906 81.8176 46.7831 80.9663 47.9485 79.6579C47.5278 80.6423 46.8982 81.5235 46.1033 82.2403C45.3083 82.9572 44.367 83.4926 43.3447 83.8095C42.3223 84.1263 41.2433 84.2171 40.1824 84.0755C39.1215 83.9338 38.104 83.5632 37.2006 82.9892C36.2971 82.4152 35.5292 81.6516 34.95 80.7513C34.3709 79.851 33.9943 78.8355 33.8465 77.7752C33.6987 76.7149 33.7831 75.6351 34.0939 74.6107C34.4047 73.5862 34.9345 72.6416 35.6465 71.8423Z" fill="black"/>
<path d="M121.436 176C121.436 176 117.915 166.661 128.48 159.657L121.436 176Z" fill="#3AD29F" fill-opacity="0.75"/>
<path d="M135.203 175.5C135.203 175.5 134.324 170.443 127.52 170.486L135.203 175.5Z" fill="#3AD29F" fill-opacity="0.75"/>
<path d="M200.196 175.629C200.196 175.629 196.389 166.256 207.81 159.226L200.196 175.629Z" fill="#3AD29F" fill-opacity="0.75"/>
<path d="M195.514 175.458C195.514 175.458 194.353 168.778 185.364 168.835L195.514 175.458Z" fill="#3AD29F" fill-opacity="0.75"/>
<path d="M170 171.209L167.594 172L163 164.167L166.552 163L170 171.209Z" fill="#FFB7B7"/>
<path d="M171 173.118L164.208 176L164.177 175.902C163.916 175.101 163.945 174.215 164.256 173.438C164.568 172.662 165.137 172.058 165.838 171.76L165.838 171.76L169.986 170L171 173.118Z" fill="#2F2E41"/>
<path d="M148 173L145.967 173L145 164L148 164L148 173Z" fill="#FFB7B7"/>
<path d="M148 176L141 176V175.874C141 174.846 141.287 173.861 141.798 173.135C142.309 172.408 143.002 172 143.725 172H143.725L148 172L148 176Z" fill="#2F2E41"/>
<path d="M159.034 110.531L158.242 109L151.512 112.254L151.71 113.593L150.423 115.22C150.423 115.22 148.246 116.368 148.642 120.196L149.038 123.833L149.532 128.522L146.068 140.1L144.287 155.411L143 167.756L149.235 167.469L154.976 147.373L165.072 169L172 167.278L162.498 145.842L161.311 136.847C161.311 136.847 162.102 132.062 158.341 128.809L158.935 127.086V124.964L160.915 114.837L159.034 110.531Z" fill="#2F2E41"/>
<path opacity="0.2" d="M159.085 131.973L154.828 147.069L155.047 147.13L159.304 132.035L159.085 131.973Z" fill="black"/>
<path d="M159 128H149V129H159V128Z" fill="#3F3D56"/>
<path d="M148.5 129C148.776 129 149 128.776 149 128.5C149 128.224 148.776 128 148.5 128C148.224 128 148 128.224 148 128.5C148 128.776 148.224 129 148.5 129Z" fill="#3F3D56"/>
<path d="M155.979 107.342C158.478 105.976 159.397 102.842 158.03 100.342C156.664 97.8418 153.53 96.9231 151.031 98.2897C148.532 99.6562 147.613 102.791 148.98 105.29C150.346 107.79 153.479 108.709 155.979 107.342Z" fill="#FFB7B7"/>
<path d="M161.5 101C163.985 101 166 98.9853 166 96.5C166 94.0147 163.985 92 161.5 92C159.015 92 157 94.0147 157 96.5C157 98.9853 159.015 101 161.5 101Z" fill="#2F2E41"/>
<path d="M167.791 95C167.989 95.7216 168.047 96.4798 167.962 97.2269C167.876 97.974 167.648 98.6937 167.293 99.3405C166.938 99.9873 166.463 100.547 165.899 100.985C165.334 101.423 164.692 101.729 164.013 101.884C163.334 102.038 162.633 102.039 161.954 101.885C161.274 101.731 160.632 101.426 160.067 100.989C159.502 100.552 159.026 99.9924 158.671 99.346C158.315 98.6997 158.087 97.9803 158 97.2333C158.36 98.5434 159.16 99.6589 160.243 100.358C161.325 101.058 162.611 101.29 163.844 101.009C165.076 100.727 166.167 99.9533 166.898 98.8402C167.63 97.7271 167.948 96.3563 167.791 95Z" fill="#2F2E41"/>
<path d="M149.75 101.323C149.622 102.635 149.869 103.959 150.451 105.091C151.034 106.222 151.92 107.098 152.973 107.582C154.025 108.066 155.185 108.132 156.273 107.768C157.361 107.405 158.315 106.633 158.989 105.573C159.663 104.512 160.018 103.222 159.999 101.902C159.981 100.582 159.59 99.3059 158.887 98.2716C158.184 97.2372 157.208 96.5023 156.111 96.1807C155.014 95.8592 153.856 95.9688 152.818 96.4928C151.959 95.6846 150.894 95.9351 150.029 96.788C149.05 97.7525 148.759 98.415 148 100.001C148.746 100.123 149.003 101.201 149.75 101.323Z" fill="#2F2E41"/>
<path d="M167.998 116.73C167.941 118.229 167.828 121.179 167.828 121.329C167.828 121.488 165.583 126.119 164.613 128.112V128.113C164.544 128.253 164.482 128.38 164.428 128.493C164.353 128.647 164.235 128.777 164.088 128.867C163.941 128.957 163.771 129.003 163.599 129L159.361 128.924C159.128 128.92 158.905 128.827 158.74 128.663C158.574 128.5 158.479 128.279 158.473 128.047L158 109.471C157.999 109.41 158.009 109.349 158.032 109.292C158.054 109.235 158.088 109.183 158.131 109.139C158.174 109.095 158.225 109.06 158.282 109.036C158.338 109.012 158.399 109 158.461 109H163.927C164.157 109 164.384 109.065 164.579 109.187C164.775 109.31 164.932 109.484 165.032 109.691L167.656 115.098C167.902 115.606 168.019 116.166 167.998 116.73Z" fill="#FF6584"/>
<path d="M158.638 127C157.491 126.341 156.46 125.514 155.583 124.551C153.546 122.378 152.307 119.637 152.052 116.739C151.825 114.26 152.343 112.417 153.594 111.262C155.183 109.793 157.346 110.006 157.438 110.016L157.534 110.027L159 111.203L158.585 111.668L157.274 110.615C156.872 110.596 155.234 110.592 154.037 111.703C152.935 112.725 152.482 114.402 152.692 116.687C152.934 119.446 154.111 122.056 156.046 124.129C156.881 125.045 157.86 125.833 158.948 126.467L158.638 127Z" fill="#FF6584"/>
<path d="M166.381 119.942L158.857 121.488L158.898 121.689L166.422 120.144L166.381 119.942Z" fill="#3F3D56"/>
<path d="M161.422 109.008L161.216 109.016L161.705 120.991L161.911 120.982L161.422 109.008Z" fill="#3F3D56"/>
<path d="M167.998 116.906C167.947 118.499 167.848 121.633 167.848 121.793C167.848 121.962 165.859 126.882 165 129L166.601 117.889C166.663 117.461 166.819 117.061 167.053 116.729C167.287 116.397 167.59 116.146 167.932 116C167.986 116.298 168.008 116.602 167.998 116.906Z" fill="#3F3D56"/>
<path d="M156.687 139.234C156.821 139.009 156.915 138.75 156.963 138.472C157.011 138.195 157.012 137.908 156.966 137.63C156.92 137.353 156.828 137.091 156.696 136.865C156.564 136.639 156.395 136.454 156.203 136.322L156.509 131.899L154.494 131L154.128 137.254C153.98 137.692 153.959 138.185 154.071 138.64C154.183 139.096 154.418 139.483 154.734 139.727C155.049 139.971 155.422 140.055 155.782 139.964C156.142 139.874 156.464 139.614 156.687 139.234Z" fill="#FFB7B7"/>
<path d="M157.624 136L153 135.835L153.196 113.949C153.192 113.329 153.387 112.725 153.753 112.22C154.119 111.716 154.638 111.337 155.235 111.137C155.793 110.955 156.396 110.954 156.955 111.135C157.588 111.346 158.132 111.757 158.501 112.305C158.87 112.853 159.042 113.505 158.991 114.159L157.624 136Z" fill="#E6E3E3"/>
</svg>
