<svg width="41.75" height="41.75" viewBox="0 0 42 42" fill="none" xmlns="http://www.w3.org/2000/svg">
<path d="M5.94942 1.66992L24.0324 19.6224L28.9902 14.6646L7.07146 2.00914C6.70614 1.79713 6.31474 1.67971 5.94942 1.66992ZM4.43599 2.50492C4.2729 2.79522 4.17505 3.13769 4.17505 3.52258V38.4099C4.17505 38.6904 4.23376 38.9416 4.33161 39.1666L22.8321 20.7966L4.43599 2.50492ZM30.5036 15.5257L25.2066 20.7966L30.5036 26.0415L36.9749 22.3362C37.8947 21.8045 38.0252 21.1293 38.0186 20.7705C38.0088 20.1769 37.6337 19.6224 37.001 19.2832C36.4497 18.9864 32.3563 16.6021 30.5036 15.5257ZM24.0324 21.9709L5.79286 40.0539C6.0962 40.0375 6.42563 39.9723 6.73224 39.7928C7.44655 39.3787 21.8927 31.0253 21.8927 31.0253L29.0163 26.9287L24.0324 21.9709Z" fill="#0E91E7"/>
</svg>
