<svg width="60" height="75" viewBox="0 0 100 125" fill="none" xmlns="http://www.w3.org/2000/svg">
<path d="M80.833 58.5H18.833V16.5H80.833V58.5ZM95.999 77.5C95.999 77.561 95.992 77.621 95.99 77.681C95.991 77.696 95.999 77.709 95.999 77.724V82.5C95.999 85.809 93.308 88.5 89.999 88.5H10.001C6.69198 88.5 4.00098 85.809 4.00098 82.5V77.725C4.00098 77.709 4.00898 77.696 4.00998 77.68C4.00798 77.62 4.00098 77.561 4.00098 77.5V77.197L13.833 62.449V17.5C13.833 14.191 16.524 11.5 19.833 11.5H79.833C83.142 11.5 85.833 14.191 85.833 17.5V61.945L95.999 77.197V77.5ZM92.214 80.821C93.21 80.151 93.884 79.041 93.966 77.755L84.466 63.5H76.619L80.815 71.892C80.944 72.06 81.021 72.271 81.021 72.5C81.021 73.052 80.573 73.5 80.021 73.5C80.014 73.499 80.008 73.5 80.001 73.5H70.004C70.003 73.5 70.002 73.5 70.001 73.5C70 73.5 69.999 73.5 69.998 73.5H65.911C65.432 76.333 62.969 78.5 60.001 78.5H40.001C37.034 78.5 34.57 76.333 34.091 73.5H30.004C30.003 73.5 30.002 73.5 30.001 73.5C30 73.5 29.999 73.5 29.998 73.5H20.001C19.654 73.5 19.333 73.32 19.15 73.026C18.968 72.731 18.951 72.363 19.106 72.053L23.382 63.5H15.535L6.03298 77.755C6.11598 79.041 6.78998 80.151 7.78498 80.821C7.80198 80.832 7.81498 80.847 7.83198 80.858C7.99398 80.963 8.16898 81.047 8.34598 81.129C8.39798 81.152 8.44498 81.186 8.49798 81.207C8.66298 81.274 8.83898 81.318 9.01398 81.362C9.08598 81.381 9.15198 81.41 9.22498 81.425C9.47598 81.474 9.73498 81.501 9.99998 81.501H89.998C90.263 81.501 90.522 81.475 90.773 81.425C90.845 81.41 90.912 81.381 90.982 81.362C91.157 81.317 91.334 81.274 91.5 81.206C91.552 81.185 91.598 81.152 91.649 81.129C91.827 81.047 92.003 80.963 92.166 80.858C92.184 80.847 92.198 80.832 92.214 80.821ZM51.001 63.5V66.5H57.987L57.487 63.5H51.001ZM29.28 71.5L30.28 68.5H23.119L21.619 71.5H29.28ZM31.389 71.5H35.001H39.154L39.654 68.5H32.388L31.389 71.5ZM49.001 68.5H41.682L41.182 71.5H49.001V68.5ZM51.001 71.5H58.82L58.32 68.5H51.001V71.5ZM36.127 73.5C36.572 75.223 38.14 76.5 40.001 76.5H60.001C61.861 76.5 63.429 75.223 63.875 73.5H36.127ZM68.613 71.5L67.613 68.5H60.348L60.848 71.5H65.001H68.613ZM78.383 71.5L76.883 68.5H69.722L70.722 71.5H78.383ZM75.883 66.5L74.383 63.5H68.055L69.055 66.5H75.883ZM59.515 63.5L60.015 66.5H66.947L65.947 63.5H59.515ZM49.001 63.5H42.515L42.015 66.5H49.001V63.5ZM40.487 63.5H34.054L33.054 66.5H39.987L40.487 63.5ZM31.946 63.5H25.619L24.119 66.5H30.946L31.946 63.5ZM15.833 61.5H25.001H75.001H83.833V17.5C83.833 15.294 82.039 13.5 79.833 13.5H19.833C17.627 13.5 15.833 15.294 15.833 17.5V61.5V61.5ZM93.999 81.966C93.986 81.978 93.97 81.986 93.957 81.998C93.72 82.206 93.468 82.396 93.201 82.566C93.157 82.594 93.113 82.62 93.068 82.647C92.801 82.807 92.523 82.948 92.231 83.065C92.185 83.084 92.137 83.099 92.09 83.116C91.788 83.229 91.477 83.322 91.154 83.386C91.122 83.392 91.089 83.395 91.056 83.401C90.713 83.463 90.361 83.5 90 83.5H10.001C9.63998 83.5 9.28798 83.462 8.94498 83.401C8.91198 83.396 8.87898 83.393 8.84698 83.386C8.52398 83.323 8.21298 83.229 7.91098 83.116C7.86398 83.098 7.81698 83.083 7.76998 83.065C7.47798 82.948 7.19998 82.806 6.93298 82.647C6.88798 82.62 6.84398 82.594 6.79998 82.566C6.53198 82.397 6.27998 82.207 6.04398 81.998C6.03098 81.986 6.01498 81.978 6.00198 81.966V82.5C6.00198 84.706 7.79598 86.5 10.002 86.5H90C92.206 86.5 94 84.706 94 82.5V81.966H93.999Z" fill="#0E91E7"/>
</svg>
